<svg
      xmlns="http://www.w3.org/2000/svg"
      strokeLinecap="round"
      strokeLinejoin="round"
      strokeMiterlimit="10"
      clipRule="evenodd"
      viewBox="0 0 866.254 199.587"
    >
      <defs>
        <linearGradient
          id="LinearGradient"
          x1="167.274"
          x2="829.346"
          y1="99.794"
          y2="99.794"
          gradientUnits="userSpaceOnUse"
        >
          <stop offset="0" stopColor="#6e00ff"></stop>
          <stop offset="1" stopColor="#ffd900"></stop>
        </linearGradient>
        <linearGradient
          id="LinearGradient_2"
          x1="226.106"
          x2="373.638"
          y1="179.394"
          y2="179.394"
          gradientTransform="matrix(.58584 0 0 .47937 -95.556 -20.297)"
          gradientUnits="userSpaceOnUse"
        >
          <stop offset="0" stopColor="#ffd900"></stop>
          <stop offset="0.851" stopColor="#ffd900"></stop>
          <stop offset="1" stopColor="#ffed89"></stop>
        </linearGradient>
        <linearGradient
          id="LinearGradient_3"
          x1="80.844"
          x2="520.125"
          y1="513.688"
          y2="513.688"
          gradientTransform="matrix(.19637 0 0 .19637 21.246 34.992)"
          gradientUnits="userSpaceOnUse"
        >
          <stop offset="0" stopColor="#6e00ff"></stop>
          <stop offset="1" stopColor="#e1adf0"></stop>
        </linearGradient>
      </defs>
      <g>
        <g fill="url(#LinearGradient)">
          <path d="M206.918 138.789c-5.888 0-11.157-1.045-15.808-3.136-4.65-2.09-8.298-4.992-10.944-8.704-2.645-3.712-4.01-8-4.096-12.864h12.416c.427 4.182 2.155 7.702 5.184 10.56 3.03 2.859 7.446 4.288 13.248 4.288 5.547 0 9.92-1.386 13.12-4.16 3.2-2.773 4.8-6.336 4.8-10.688 0-3.413-.938-6.186-2.816-8.32-1.877-2.133-4.224-3.754-7.04-4.864-2.816-1.109-6.613-2.304-11.392-3.584-5.888-1.536-10.602-3.072-14.144-4.608-3.541-1.536-6.57-3.946-9.088-7.232-2.517-3.285-3.776-7.701-3.776-13.248 0-4.864 1.238-9.173 3.712-12.928 2.475-3.754 5.952-6.656 10.432-8.704 4.48-2.048 9.622-3.072 15.424-3.072 8.363 0 15.211 2.091 20.544 6.272 5.334 4.182 8.342 9.728 9.024 16.64h-12.8c-.426-3.413-2.218-6.421-5.376-9.024-3.157-2.602-7.338-3.904-12.544-3.904-4.864 0-8.832 1.259-11.904 3.776-3.072 2.518-4.608 6.038-4.608 10.56 0 3.243.918 5.888 2.752 7.936 1.835 2.048 4.096 3.606 6.784 4.672 2.688 1.067 6.464 2.283 11.328 3.648 5.888 1.622 10.624 3.222 14.208 4.8 3.584 1.579 6.656 4.011 9.216 7.296 2.56 3.286 3.84 7.744 3.84 13.376 0 4.352-1.152 8.448-3.456 12.288-2.304 3.84-5.717 6.955-10.24 9.344-4.522 2.39-9.856 3.584-16 3.584zM338.118 66.47c5.462 0 10.326 1.13 14.592 3.391 4.267 2.262 7.638 5.654 10.112 10.176 2.475 4.523 3.712 10.027 3.712 16.512v41.344h-11.52v-39.68c0-6.997-1.728-12.352-5.184-16.064-3.456-3.712-8.128-5.568-14.016-5.568-6.058 0-10.88 1.942-14.464 5.824-3.584 3.883-5.376 9.494-5.376 16.832v38.656h-11.52v-39.68c0-6.997-1.728-12.352-5.184-16.064-3.456-3.712-8.128-5.568-14.016-5.568-6.058 0-10.88 1.942-14.464 5.824-3.584 3.883-5.376 9.494-5.376 16.832v38.656h-11.648V67.749h11.648v10.112c2.304-3.669 5.398-6.485 9.28-8.448 3.883-1.962 8.171-2.944 12.864-2.944 5.888 0 11.094 1.323 15.616 3.968 4.523 2.646 7.894 6.528 10.112 11.648 1.963-4.949 5.206-8.789 9.728-11.52 4.523-2.73 9.558-4.096 15.104-4.096zM381.254 102.565c0-7.168 1.451-13.461 4.352-18.88 2.902-5.418 6.891-9.621 11.968-12.608 5.078-2.986 10.731-4.48 16.96-4.48 6.144 0 11.478 1.323 16 3.968 4.523 2.646 7.894 5.974 10.112 9.984v-12.8h11.776v70.144h-11.776v-13.056c-2.304 4.096-5.738 7.488-10.304 10.176-4.565 2.688-9.877 4.032-15.936 4.032-6.229 0-11.861-1.536-16.896-4.608-5.034-3.072-9.002-7.381-11.904-12.928-2.901-5.546-4.352-11.861-4.352-18.944zm59.392.128c0-5.29-1.066-9.898-3.2-13.824-2.133-3.925-5.013-6.933-8.64-9.024-3.626-2.09-7.616-3.136-11.968-3.136s-8.32 1.024-11.904 3.072c-3.584 2.048-6.442 5.035-8.576 8.96-2.133 3.926-3.2 8.534-3.2 13.824 0 5.376 1.067 10.048 3.2 14.016 2.134 3.968 4.992 6.998 8.576 9.088 3.584 2.091 7.552 3.136 11.904 3.136s8.342-1.045 11.968-3.136c3.627-2.09 6.507-5.12 8.64-9.088 2.134-3.968 3.2-8.597 3.2-13.888zM483.782 79.141c2.048-4.01 4.971-7.125 8.768-9.344 3.798-2.218 8.427-3.328 13.888-3.328v12.032h-3.072c-13.056 0-19.584 7.083-19.584 21.248v38.144h-11.648V67.749h11.648v11.392zM534.086 77.35v41.343c0 3.414.726 5.824 2.176 7.232 1.451 1.408 3.968 2.112 7.552 2.112h8.576v9.856h-10.496c-6.485 0-11.349-1.493-14.592-4.48-3.242-2.986-4.864-7.893-4.864-14.72V77.349h-9.088v-9.6h9.088V50.085h11.648V67.75h18.304v9.6h-18.304zM641.094 138.789c-8.277 0-15.829-1.941-22.656-5.824-6.826-3.882-12.224-9.301-16.192-16.256-3.968-6.954-5.952-14.784-5.952-23.488 0-8.704 1.984-16.533 5.952-23.488 3.968-6.954 9.366-12.373 16.192-16.256 6.827-3.882 14.379-5.824 22.656-5.824 8.363 0 15.958 1.942 22.784 5.824 6.827 3.883 12.203 9.28 16.128 16.192 3.926 6.912 5.888 14.763 5.888 23.552 0 8.79-1.962 16.64-5.888 23.552-3.925 6.912-9.301 12.31-16.128 16.192-6.826 3.883-14.421 5.824-22.784 5.824zm0-10.112c6.23 0 11.84-1.45 16.832-4.352 4.992-2.901 8.918-7.04 11.776-12.416 2.859-5.376 4.288-11.605 4.288-18.688 0-7.168-1.429-13.418-4.288-18.752-2.858-5.333-6.762-9.45-11.712-12.352-4.949-2.901-10.581-4.352-16.896-4.352-6.314 0-11.946 1.451-16.896 4.352-4.949 2.902-8.853 7.019-11.712 12.352-2.858 5.334-4.288 11.584-4.288 18.752 0 7.083 1.43 13.312 4.288 18.688 2.859 5.376 6.784 9.515 11.776 12.416 4.992 2.902 10.603 4.352 16.832 4.352zM794.694 67.75l-21.888 70.143h-12.032l-16.896-55.68-16.896 55.68H714.95l-22.016-70.144h11.904l16.128 58.88 17.408-58.88h11.904l17.024 59.008 15.872-59.008h11.52zM817.862 43.173v94.72h-11.648v-94.72h11.648z"></path>
        </g>
        <path
          fill="url(#LinearGradient_2)"
          d="M119.478 42.944l-13.02 10.642-26.29 21.511-26.253-21.481L40.98 43.03c-2.178-1.782-4.072-1.179-4.072 1.341l.02 10.857L79.2 89.241l2.555.215c2.271-2.044 40.187-33.84 41.582-35.107V44.254c0-2.466-1.728-3.052-3.859-1.31z"
        ></path>
        <path
          fill="#fefefe"
          d="M80.203 110.023l-.108.121c-2.445 2.827-7.216 6.752-10.65 8.777l-.5.31 10.948 15.465 11.569-15.465-.742-.418c-2.196-1.228-4.875-3.239-7.132-5.285-1.335-1.21-2.527-2.427-3.385-3.505zM36.918 53.196l.128 42.484v.045c4.656 17.654 21.73 22.164 38.135 10.081l13.75-10.126-35.023-28.642-16.99-13.842zm11.79 23.19l23.196 18.95-4.559 3.34c-5.117 3.769-9.323 4.835-12.028 4.119-2.573-.68-5.064-3.39-6.554-8.388l-.055-18.022z"
        ></path>
        <path
          fill="#fefefe"
          d="M123.33 53.211l-16.861 13.797-35.023 28.657 13.75 10.112c16.405 12.082 33.479 7.572 38.134-10.082l.073-.075-.073-42.409zm-11.68 23.1c.014 8.804.034 16.602.036 17.886-1.482 5.127-4.019 7.879-6.627 8.569-2.705.715-6.91-.336-12.028-4.105l-4.577-3.37 23.196-18.98z"
        ></path>
        <path
          fill="url(#LinearGradient_3)"
          d="M123.38 114.078c-3.303 4.676-7.982 7.444-13.365 8.125-.827 1.433-1.864 2.746-2.878 3.473l-26.804 19.213-26.914-19.256c-.991-.709-2.01-1.984-2.841-3.381-5.411-.625-10.117-3.35-13.457-7.99l.012 3.16c0 5.137 3.834 12.059 8.56 15.44l34.64 24.785 34.499-24.755c4.721-3.386 8.548-10.303 8.548-15.439v-3.375z"
        ></path>
      </g>
    </svg>