<svg
      xmlns="http://www.w3.org/2000/svg"
      strokeLinecap="round"
      strokeLinejoin="round"
      strokeMiterlimit="10"
      clipRule="evenodd"
      viewBox="0 0 866.254 199.587"
    >
      <g fill="#f5f5f4">
        <path d="M206.624 138.789c-5.888 0-11.158-1.045-15.808-3.136-4.651-2.09-8.299-4.992-10.944-8.704-2.646-3.712-4.011-8-4.096-12.864h12.416c.426 4.182 2.154 7.702 5.184 10.56 3.029 2.859 7.445 4.288 13.248 4.288 5.546 0 9.92-1.386 13.12-4.16 3.2-2.773 4.8-6.336 4.8-10.688 0-3.413-.939-6.186-2.816-8.32-1.878-2.133-4.224-3.754-7.04-4.864-2.816-1.109-6.614-2.304-11.392-3.584-5.888-1.536-10.603-3.072-14.144-4.608-3.542-1.536-6.571-3.946-9.088-7.232-2.518-3.285-3.776-7.701-3.776-13.248 0-4.864 1.237-9.173 3.712-12.928 2.474-3.754 5.952-6.656 10.432-8.704 4.48-2.048 9.621-3.072 15.424-3.072 8.362 0 15.21 2.091 20.544 6.272 5.333 4.182 8.341 9.728 9.024 16.64h-12.8c-.427-3.413-2.219-6.421-5.376-9.024-3.158-2.602-7.339-3.904-12.544-3.904-4.864 0-8.832 1.259-11.904 3.776-3.072 2.518-4.608 6.038-4.608 10.56 0 3.243.917 5.888 2.752 7.936 1.834 2.048 4.096 3.606 6.784 4.672 2.688 1.067 6.464 2.283 11.328 3.648 5.888 1.622 10.624 3.222 14.208 4.8 3.584 1.579 6.656 4.011 9.216 7.296 2.56 3.286 3.84 7.744 3.84 13.376 0 4.352-1.152 8.448-3.456 12.288-2.304 3.84-5.718 6.955-10.24 9.344-4.523 2.39-9.856 3.584-16 3.584zM337.824 66.47c5.461 0 10.325 1.13 14.592 3.391 4.266 2.262 7.637 5.654 10.112 10.176 2.474 4.523 3.712 10.027 3.712 16.512v41.344h-11.52v-39.68c0-6.997-1.728-12.352-5.184-16.064-3.456-3.712-8.128-5.568-14.016-5.568-6.059 0-10.88 1.942-14.464 5.824-3.584 3.883-5.376 9.494-5.376 16.832v38.656h-11.52v-39.68c0-6.997-1.728-12.352-5.184-16.064-3.456-3.712-8.128-5.568-14.016-5.568-6.059 0-10.88 1.942-14.464 5.824-3.584 3.883-5.376 9.494-5.376 16.832v38.656h-11.648V67.749h11.648v10.112c2.304-3.669 5.397-6.485 9.28-8.448 3.882-1.962 8.17-2.944 12.864-2.944 5.888 0 11.093 1.323 15.616 3.968 4.522 2.646 7.893 6.528 10.112 11.648 1.962-4.949 5.205-8.789 9.728-11.52 4.522-2.73 9.557-4.096 15.104-4.096zM380.96 102.565c0-7.168 1.45-13.461 4.352-18.88 2.901-5.418 6.89-9.621 11.968-12.608 5.077-2.986 10.73-4.48 16.96-4.48 6.144 0 11.477 1.323 16 3.968 4.522 2.646 7.893 5.974 10.112 9.984v-12.8h11.776v70.144h-11.776v-13.056c-2.304 4.096-5.739 7.488-10.304 10.176-4.566 2.688-9.878 4.032-15.936 4.032-6.23 0-11.862-1.536-16.896-4.608-5.035-3.072-9.003-7.381-11.904-12.928-2.902-5.546-4.352-11.861-4.352-18.944zm59.392.128c0-5.29-1.067-9.898-3.2-13.824-2.134-3.925-5.014-6.933-8.64-9.024-3.627-2.09-7.616-3.136-11.968-3.136s-8.32 1.024-11.904 3.072c-3.584 2.048-6.443 5.035-8.576 8.96-2.134 3.926-3.2 8.534-3.2 13.824 0 5.376 1.066 10.048 3.2 14.016 2.133 3.968 4.992 6.998 8.576 9.088 3.584 2.091 7.552 3.136 11.904 3.136s8.341-1.045 11.968-3.136c3.626-2.09 6.506-5.12 8.64-9.088 2.133-3.968 3.2-8.597 3.2-13.888zM483.488 79.141c2.048-4.01 4.97-7.125 8.768-9.344 3.797-2.218 8.426-3.328 13.888-3.328v12.032h-3.072c-13.056 0-19.584 7.083-19.584 21.248v38.144H471.84V67.749h11.648v11.392zM533.792 77.35v41.343c0 3.414.725 5.824 2.176 7.232 1.45 1.408 3.968 2.112 7.552 2.112h8.576v9.856H541.6c-6.486 0-11.35-1.493-14.592-4.48-3.243-2.986-4.864-7.893-4.864-14.72V77.349h-9.088v-9.6h9.088V50.085h11.648V67.75h18.304v9.6h-18.304zM640.8 138.789c-8.278 0-15.83-1.941-22.656-5.824-6.827-3.882-12.224-9.301-16.192-16.256-3.968-6.954-5.952-14.784-5.952-23.488 0-8.704 1.984-16.533 5.952-23.488 3.968-6.954 9.365-12.373 16.192-16.256 6.826-3.882 14.378-5.824 22.656-5.824 8.362 0 15.957 1.942 22.784 5.824 6.826 3.883 12.202 9.28 16.128 16.192 3.925 6.912 5.888 14.763 5.888 23.552 0 8.79-1.963 16.64-5.888 23.552-3.926 6.912-9.302 12.31-16.128 16.192-6.827 3.883-14.422 5.824-22.784 5.824zm0-10.112c6.229 0 11.84-1.45 16.832-4.352 4.992-2.901 8.917-7.04 11.776-12.416 2.858-5.376 4.288-11.605 4.288-18.688 0-7.168-1.43-13.418-4.288-18.752-2.859-5.333-6.763-9.45-11.712-12.352-4.95-2.901-10.582-4.352-16.896-4.352-6.315 0-11.947 1.451-16.896 4.352-4.95 2.902-8.854 7.019-11.712 12.352-2.859 5.334-4.288 11.584-4.288 18.752 0 7.083 1.429 13.312 4.288 18.688 2.858 5.376 6.784 9.515 11.776 12.416 4.992 2.902 10.602 4.352 16.832 4.352zM794.4 67.75l-21.888 70.143H760.48l-16.896-55.68-16.896 55.68h-12.032L692.64 67.749h11.904l16.128 58.88 17.408-58.88h11.904l17.024 59.008 15.872-59.008h11.52zM817.568 43.173v94.72H805.92v-94.72h11.648z"></path>
        <g>
          <path d="M80.398 109.997l-.108.121c-2.44 2.821-7.2 6.737-10.626 8.757l-.498.309 10.922 15.429 11.541-15.429-.74-.417c-2.19-1.225-4.863-3.231-7.115-5.272-1.331-1.207-2.52-2.421-3.376-3.498zM37.215 53.305l.127 42.384v.044c4.645 17.613 21.678 22.112 38.045 10.058l13.717-10.102-34.94-28.575-16.95-13.81zm11.762 23.134l23.14 18.906-4.547 3.332c-5.106 3.761-9.301 4.824-12 4.11-2.568-.679-5.052-3.382-6.538-8.369l-.055-17.979z"></path>
          <path d="M123.423 53.32l-16.822 13.764-34.94 28.59 13.717 10.087c16.367 12.054 33.4 7.555 38.045-10.058l.073-.074-.073-42.31zM111.77 76.365c.014 8.783.034 16.563.036 17.844-1.478 5.115-4.01 7.86-6.611 8.548-2.699.714-6.894-.334-12-4.095L88.629 95.3l23.141-18.935z"></path>
          <path d="M123.473 114.043c-3.295 4.665-7.964 7.427-13.334 8.106-.825 1.429-1.86 2.739-2.871 3.465l-26.74 19.167-26.852-19.21c-.988-.708-2.004-1.979-2.834-3.373-5.398-.624-10.093-3.342-13.426-7.971l.013 3.153c0 5.124 3.825 12.03 8.54 15.402l34.558 24.727 34.418-24.696c4.709-3.378 8.528-10.278 8.528-15.403v-3.367zM121.734 42.08c-.615.022-1.357.346-2.155.998l-12.991 10.615-26.226 21.463-26.19-21.432-12.905-10.56c-2.173-1.779-4.065-1.174-4.065 1.34l.012 6.844 16.952 13.805 26.202 21.433 26.233-21.463 16.823-13.763.006 3.098V44.382c0-1.538-.672-2.34-1.696-2.302z"></path>
        </g>
      </g>
    </svg>